<svg xmlns="http://www.w3.org/2000/svg" viewBox="0 0 286.55 77.45"><defs><style>.cls-1{fill:#009ade;}</style></defs><g id="Layer_2" data-name="Layer 2"><g id="Layer_1-2" data-name="Layer 1"><path d="M2.28,48.24A16.31,16.31,0,0,1,8.6,41.58a18,18,0,0,1,9.15-2.35,16.67,16.67,0,0,1,9.14,2.45,14.31,14.31,0,0,1,5.55,6.26V39.78H37.2V76.91H32.44V68.68A15,15,0,0,1,26.83,75a16.55,16.55,0,0,1-9.15,2.48A17.54,17.54,0,0,1,8.6,75.07a16.5,16.5,0,0,1-6.32-6.73A21.39,21.39,0,0,1,0,58.27,21.2,21.2,0,0,1,2.28,48.24ZM30.6,50.45a13.07,13.07,0,0,0-5-5.23,13.58,13.58,0,0,0-7-1.84,14.08,14.08,0,0,0-7.07,1.77,12.52,12.52,0,0,0-4.93,5.13,16.74,16.74,0,0,0-1.8,8,16.94,16.94,0,0,0,1.8,8,12.62,12.62,0,0,0,4.93,5.24,13.9,13.9,0,0,0,7.07,1.8,13.67,13.67,0,0,0,7-1.83,13.09,13.09,0,0,0,5-5.24,16.42,16.42,0,0,0,1.84-7.89A16.42,16.42,0,0,0,30.6,50.45Z"/><path d="M47.37,74.49a10.75,10.75,0,0,1-4.52-8.06h4.89a7,7,0,0,0,3,5.07,11.57,11.57,0,0,0,7,1.94,9.2,9.2,0,0,0,6.08-1.84A5.66,5.66,0,0,0,66,67.05a4.21,4.21,0,0,0-1.22-3.13A8.76,8.76,0,0,0,61.72,62a46.84,46.84,0,0,0-5.07-1.53,49.59,49.59,0,0,1-6.73-2.18A11.34,11.34,0,0,1,45.53,55a8.62,8.62,0,0,1-1.8-5.74,8.53,8.53,0,0,1,1.63-5A11.19,11.19,0,0,1,50,40.59a16.35,16.35,0,0,1,6.8-1.36,14.69,14.69,0,0,1,9.65,3,11,11,0,0,1,4,8.33H65.63a7.26,7.26,0,0,0-2.55-5.27,9.58,9.58,0,0,0-6.43-2A9.47,9.47,0,0,0,50.8,45a5.14,5.14,0,0,0-2.24,4.22,5,5,0,0,0,1.32,3.57A9.19,9.19,0,0,0,53.18,55c1.32.52,3.08,1.1,5.31,1.73a51.2,51.2,0,0,1,6.39,2.11,11.25,11.25,0,0,1,4.08,3,8.07,8.07,0,0,1,1.77,5.24,9.09,9.09,0,0,1-1.64,5.33,11,11,0,0,1-4.55,3.71,15.77,15.77,0,0,1-6.73,1.36Q51.41,77.45,47.37,74.49Z"/><path d="M96.85,76.91,81.55,60.25V76.91H76.79V26.59h4.76V56.37l15-16.59h6.67L85.56,58.27l17.75,18.64Z"/><path d="M111.48,39.78V76.91h-4.76V39.78Z"/><path d="M119.64,48.24A16.54,16.54,0,0,1,126,41.58a17.9,17.9,0,0,1,9.14-2.35A16.82,16.82,0,0,1,144,41.61a14.55,14.55,0,0,1,5.78,6.19V26.59h4.76V76.91h-4.76v-8.3A14.35,14.35,0,0,1,144.19,75a16.61,16.61,0,0,1-9.12,2.48,17.63,17.63,0,0,1-9.14-2.38,16.52,16.52,0,0,1-6.33-6.73,21.39,21.39,0,0,1-2.27-10.07A21,21,0,0,1,119.64,48.24Zm28.28,2.21a13,13,0,0,0-5-5.23,13.58,13.58,0,0,0-7-1.84,14.08,14.08,0,0,0-7.07,1.77A12.52,12.52,0,0,0,124,50.28a16.62,16.62,0,0,0-1.81,8,16.82,16.82,0,0,0,1.81,8,12.62,12.62,0,0,0,4.93,5.24A13.9,13.9,0,0,0,136,73.3a13.67,13.67,0,0,0,7-1.83,13.07,13.07,0,0,0,5-5.24,16.3,16.3,0,0,0,1.84-7.89A16.3,16.3,0,0,0,147.92,50.45Z"/><path d="M162.7,48.24A16.38,16.38,0,0,1,169,41.58a18,18,0,0,1,9.15-2.35,16.7,16.7,0,0,1,9.15,2.45,14.22,14.22,0,0,1,5.54,6.26V39.78h4.76V76.91h-4.76V68.68A15,15,0,0,1,187.25,75a16.52,16.52,0,0,1-9.15,2.48A17.56,17.56,0,0,1,169,75.07a16.56,16.56,0,0,1-6.32-6.73,21.39,21.39,0,0,1-2.28-10.07A21.2,21.2,0,0,1,162.7,48.24ZM191,50.45a13.07,13.07,0,0,0-5-5.23,13.55,13.55,0,0,0-7-1.84A14.11,14.11,0,0,0,172,45.15a12.58,12.58,0,0,0-4.93,5.13,16.74,16.74,0,0,0-1.8,8,16.94,16.94,0,0,0,1.8,8A12.69,12.69,0,0,0,172,71.5a13.92,13.92,0,0,0,7.07,1.8,13.64,13.64,0,0,0,7-1.83,13.09,13.09,0,0,0,5-5.24,16.3,16.3,0,0,0,1.84-7.89A16.3,16.3,0,0,0,191,50.45Z"/><path class="cls-1" d="M211.44,29.88q4.45-3.7,11.73-3.7a19.2,19.2,0,0,1,8.5,1.73A12.5,12.5,0,0,1,237,32.6a12.66,12.66,0,0,1,1.8,6.7,11.7,11.7,0,0,1-2.21,7.24,10.77,10.77,0,0,1-5.27,4v.27a11.48,11.48,0,0,1,6.16,4.36,13.6,13.6,0,0,1,2.21,8,14.22,14.22,0,0,1-1.87,7.28,12.76,12.76,0,0,1-5.51,5,19.41,19.41,0,0,1-8.74,1.81q-7.68,0-12.51-3.88T206,62h9.25a7.37,7.37,0,0,0,2.28,5.33,8.22,8.22,0,0,0,5.88,2,7.1,7.1,0,0,0,5.34-1.94,6.93,6.93,0,0,0,1.87-5c0-2.72-.87-4.66-2.59-5.84s-4.4-1.77-8-1.77h-2V46.92h2q9.65,0,9.65-6.46a6,6,0,0,0-1.73-4.56,7,7,0,0,0-5-1.63A6.7,6.7,0,0,0,218,36a7,7,0,0,0-2,4.39h-9.32Q207,33.6,211.44,29.88Z"/><path class="cls-1" d="M274.68,32.37a20.89,20.89,0,0,1,8.78,8.33,24.81,24.81,0,0,1,3.09,12.54,24.48,24.48,0,0,1-3.09,12.48A21,21,0,0,1,274.68,74a28.31,28.31,0,0,1-13.15,2.93h-16.6V29.44h16.6A28.31,28.31,0,0,1,274.68,32.37Zm-1.93,32.36q4.08-4.08,4.08-11.49t-4.08-11.59q-4.08-4.18-11.56-4.18h-6.74V68.81h6.74Q268.66,68.81,272.75,64.73Z"/><path d="M244.28,12.49c.83,3,2.17,5,3.74,6A9.76,9.76,0,0,0,253.4,20a57.7,57.7,0,0,0,8.64-.89l3.63-.48a45.41,45.41,0,0,1,5.9-.41q5,0,7.37,2.57T281.3,28v2.74h-2.74V28.39a7.55,7.55,0,0,0-1.68-5.31q-1.68-1.81-5.45-1.82a45.24,45.24,0,0,0-4.69.28c-1.72.18-3.37.39-5,.62s-2.95.42-4.46.58a38.21,38.21,0,0,1-4,.24A10.9,10.9,0,0,1,246.75,21a10,10,0,0,1-3.63-6H243a9.92,9.92,0,0,1-3.66,6A11,11,0,0,1,232.7,23a38.05,38.05,0,0,1-4-.24c-1.51-.16-3-.36-4.46-.58s-3.25-.44-5-.62a45.4,45.4,0,0,0-4.69-.28c-2.52,0-4.33.61-5.45,1.82a7.55,7.55,0,0,0-1.68,5.31v2.33h-2.74V28c0-3.11.78-5.52,2.36-7.23s4-2.57,7.37-2.57a45.26,45.26,0,0,1,5.89.41l3.64.48a57.6,57.6,0,0,0,8.63.89A9.74,9.74,0,0,0,238,18.45c1.58-1,2.93-3,3.75-6Z"/><path d="M248.77,1.42a5,5,0,0,1,1.57,3.9,4.65,4.65,0,0,1-1.63,3.86,6.73,6.73,0,0,1-4.33,1.3l-.1,2h-2.52l-.12-4h.84a8.58,8.58,0,0,0,3.77-.66,2.56,2.56,0,0,0,1.31-2.52,2.79,2.79,0,0,0-.77-2.11,3,3,0,0,0-2.15-.77,3,3,0,0,0-2.16.74,2.67,2.67,0,0,0-.79,2.06H239a5.33,5.33,0,0,1,.68-2.72,4.72,4.72,0,0,1,2-1.86,6.49,6.49,0,0,1,3-.66A5.93,5.93,0,0,1,248.77,1.42Z"/></g></g></svg>